<svg width="1121" height="234" viewBox="0 0 1121 234" fill="none" xmlns="http://www.w3.org/2000/svg">
<path d="M186.5 58.6C183.3 58.6 180.7 56 180.7 52.7V0H116.9C52.3 0 0 52.4 0 117C0 181.6 52.3 234 116.9 234H180.7V175.5H63.8V58.5H174.8C178 58.5 180.6 61.1 180.6 64.4V117.1H239V58.6H186.4H186.5Z" fill="url(#paint0_linear_2_9)"/>
<path d="M381 66.9C394.8 66.9 406.6 71.8 416.4 81.6C422 87.2 426 93.4 428.4 100.3H462.9C459.8 84.3 452.2 70.1 440 57.9C423.7 41.6 403.9 33.5 380.9 33.5C357.9 33.5 338.2 41.7 321.9 58C305.6 74.3 297.4 94 297.4 117.1C297.4 140.2 305.5 159.8 321.9 176.2C338.2 192.5 357.9 200.7 380.9 200.7C403.9 200.7 423.6 192.5 440 176.1C452.1 164 459.7 149.9 462.9 133.8H428.4C426 140.7 421.9 147 416.4 152.5C406.6 162.3 394.8 167.2 381 167.2C367.2 167.2 355.4 162.3 345.6 152.5C335.8 142.7 330.9 130.9 330.9 117.1C330.9 103.3 335.8 91.5 345.6 81.7C355.4 71.9 367.2 67 381 67V66.9Z" fill="black"/>
<path d="M570.2 33.5C547.2 33.5 527.5 41.7 511.2 58C494.9 74.3 486.7 94 486.7 117.1C486.7 140.2 494.8 159.8 511.2 176.2C527.5 192.5 547.2 200.7 570.2 200.7C593.2 200.7 612.9 192.5 629.2 176.2C645.5 159.9 653.7 140.2 653.7 117.1C653.7 94 645.6 74.4 629.2 58C612.9 41.7 593.2 33.5 570.2 33.5ZM605.5 152.4C595.7 162.2 583.9 167.1 570.1 167.1C556.3 167.1 544.5 162.2 534.7 152.4C524.9 142.6 520 130.8 520 117C520 103.2 524.9 91.4 534.7 81.6C544.5 71.8 556.3 66.9 570.1 66.9C583.9 66.9 595.7 71.8 605.5 81.6C615.3 91.4 620.2 103.2 620.2 117C620.2 130.8 615.3 142.6 605.5 152.4Z" fill="black"/>
<path d="M759.3 33.5C736.3 33.5 716.6 41.7 700.3 58C684 74.3 675.8 94 675.8 117.1V200.6H709.2V117.1C709.2 103.3 714.1 91.5 723.9 81.7C733.7 71.9 745.5 67 759.3 67C773.1 67 784.9 71.9 794.7 81.7C804.5 91.5 809.4 103.3 809.4 117.1V200.6H842.8V117.1C842.8 94 834.7 74.4 818.3 58C802 41.7 782.3 33.5 759.3 33.5Z" fill="black"/>
<path d="M1121 66.9V33.5H1087.6V0.0999908H1054.2V163.9C1054.2 184.1 1070.6 200.6 1090.8 200.6H1120.9V167.2H1087.5V67H1121V66.9ZM1087.6 66.7C1087.73 66.7 1087.73 66.7 1087.6 66.7Z" fill="black"/>
<path d="M920.6 133.8H1030.4C1031.4 128.4 1031.9 122.9 1031.9 117.1C1031.9 94 1023.8 74.4 1007.5 58C991.2 41.7 971.5 33.5 948.5 33.5C925.5 33.5 905.8 41.7 889.5 58C873.2 74.3 865 94 865 117.1C865 140.2 873.2 159.8 889.5 176.2C905.8 192.5 925.5 200.7 948.5 200.7C971.5 200.7 991.2 192.5 1007.6 176.1C1014.4 169.3 1019.8 161.8 1023.8 153.7H982.4C980.5 155.7 978.6 157.4 976.3 158.9C968.2 164.5 959 167.2 948.6 167.2C938.2 167.2 928.9 164.4 920.8 158.9C907.2 149.9 898.3 134.6 898.3 117.1C898.3 99.6 907.3 84.3 920.8 75.3C928.9 69.8 938.1 67 948.5 67C958.9 67 968.1 69.8 976.2 75.3C986.3 81.9 993.8 92.1 997 104H920.7V133.9L920.6 133.8Z" fill="black"/>
<defs>
<linearGradient id="paint0_linear_2_9" x1="119.5" y1="234" x2="119.5" y2="0" gradientUnits="userSpaceOnUse">
<stop stop-color="#9B6FDF"/>
<stop offset="0.9"/>
</linearGradient>
</defs>
</svg>
